<?xml version="1.0" encoding="UTF-8"?>
<svg version="1.1" xmlns="http://www.w3.org/2000/svg" width="1024" height="1024">
<path d="M0 0 C0.99 0 1.98 0 3 0 C4.61889648 2.08520508 4.61889648 2.08520508 6.37109375 5.01953125 C7.02166748 6.09501221 7.67224121 7.17049316 8.3425293 8.27856445 C9.04089868 9.45651581 9.73922116 10.63449497 10.4375 11.8125 C11.15995329 13.01272277 11.8836774 14.21218147 12.60864258 15.41088867 C13.70477217 17.2235861 14.800144 19.03668813 15.89152527 20.85224915 C18.91810482 25.88601156 22.03095882 30.8595707 25.1875 35.8125 C29.27111773 42.24533264 33.30856573 48.70476698 37.3125 55.1875 C41.97897624 62.74241364 46.66651833 70.28368783 51.375 77.8125 C52.00196777 78.81514893 52.62893555 79.81779785 53.27490234 80.85083008 C56.42205914 85.88233594 59.57153343 90.91238344 62.72265625 95.94140625 C69.94551224 107.47518181 77.11069489 119.04228921 84.23022461 130.64013672 C88.57433493 137.70799837 92.97431012 144.73688806 97.42260742 151.73950195 C101.67818039 158.45442269 105.84219604 165.22421091 110 172 C115.11412993 180.33248925 120.26666059 188.63682497 125.50097656 196.89428711 C135.53861023 212.72998382 145.42084446 228.66057727 155.22949219 244.63891602 C159.57382303 251.70719953 163.97405559 258.73648737 168.42260742 265.73950195 C172.67817983 272.4544218 176.84225286 279.2241768 181 286 C186.15690577 294.40359883 191.35714613 302.77552222 196.6394043 311.10083008 C200.23508346 316.77320361 203.78336544 322.4735108 207.3125 328.1875 C211.97897624 335.74241364 216.66651833 343.28368783 221.375 350.8125 C222.00196777 351.81514893 222.62893555 352.81779785 223.27490234 353.85083008 C226.42205914 358.88233594 229.57153343 363.91238344 232.72265625 368.94140625 C239.94551224 380.47518181 247.11069489 392.04228921 254.23022461 403.64013672 C258.57433493 410.70799837 262.97431012 417.73688806 267.42260742 424.73950195 C271.67818033 431.4544226 275.84220414 438.2242059 280 445 C284.81163273 452.83980533 289.64538098 460.66334898 294.5625 468.4375 C295.0462207 469.20320313 295.52994141 469.96890625 296.02832031 470.7578125 C298.09467915 474.02124435 300.17261992 477.27525698 302.29296875 480.50390625 C302.93878906 481.49261719 303.58460938 482.48132813 304.25 483.5 C304.79140625 484.3146875 305.3328125 485.129375 305.890625 485.96875 C307 488 307 488 307 491 C289.54368058 491.7335926 272.09380492 492.24420111 254.62548828 492.57250977 C252.10553596 492.62171348 249.58558775 492.67112797 247.06564331 492.72073364 C241.00253727 492.83949809 234.93939132 492.95597698 228.87621798 493.071248 C223.93617763 493.16521392 218.99615716 493.26016863 214.05614853 493.35578728 C213.34616159 493.36952859 212.63617464 493.38326991 211.90467294 493.39742763 C210.46117327 493.42536916 209.01767363 493.45331263 207.57417403 493.48125803 C194.11724322 493.74166019 180.66025523 493.99900046 167.20324515 494.25526863 C155.72480356 494.47393281 144.24641728 494.69532793 132.76806641 494.91870117 C119.35395686 495.1797443 105.93981431 495.43898386 92.52561748 495.69550556 C91.08757261 495.72301071 89.64952778 495.75051835 88.211483 495.77802849 C87.50442395 495.79155405 86.7973649 495.80507962 86.06887982 495.81901504 C81.15146172 495.91320301 76.23406868 496.00863295 71.31668472 496.10458565 C64.66309116 496.23438227 58.00944736 496.361244 51.35576248 496.48628616 C48.93897247 496.53212196 46.5221989 496.57883573 44.10544586 496.62658119 C38.61519074 496.73479177 33.1259616 496.82742783 27.63492203 496.88391304 C22.8702784 496.94059354 18.12690566 497.13405611 13.36834335 497.37858391 C10.83655412 497.47047869 8.30474625 497.56186174 5.7729187 497.6526947 C4.598771 497.73481974 3.4246233 497.81694478 2.21489537 497.90155846 C-1.13659599 497.99238094 -3.78251152 497.95441455 -7 497 C-10.11400701 494.03842258 -12.0310394 490.79009461 -14 487 C-14.66837891 485.98848877 -15.33675781 484.97697754 -16.02539062 483.93481445 C-16.56357422 483.0862085 -17.10175781 482.23760254 -17.65625 481.36328125 C-18.27846436 480.38576904 -18.90067871 479.40825684 -19.54174805 478.40112305 C-20.51108276 476.87225464 -20.51108276 476.87225464 -21.5 475.3125 C-26.85282425 466.9089468 -32.23671783 458.52787913 -37.6875 450.1875 C-38.30399414 449.24414795 -38.92048828 448.3007959 -39.55566406 447.32885742 C-40.77637147 445.46148494 -41.99723464 443.59421426 -43.21826172 441.72705078 C-51.40204145 429.20131502 -59.53378859 416.64158339 -67.65722656 404.07666016 C-69.93723929 400.55051684 -72.21870206 397.02531191 -74.5 393.5 C-75.41667341 392.0833377 -76.33334008 390.66667103 -77.25 389.25 C-77.70375 388.54875 -78.1575 387.8475 -78.625 387.125 C-93.75 363.75000001 -93.75 363.75000001 -95.12451172 361.62573242 C-96.042779 360.20660689 -96.96107335 358.78749886 -97.87939453 357.3684082 C-100.14679201 353.86450403 -102.41374501 350.36031405 -104.6796875 346.85546875 C-109.61004244 339.2306175 -114.54970195 331.61192092 -119.5 324 C-124.89778982 315.69998475 -130.28176625 307.39115044 -135.65722656 299.07666016 C-138.39031879 294.8498088 -141.12526848 290.62415885 -143.86010742 286.3984375 C-146.24003645 282.72086933 -148.61888398 279.04260786 -150.99609375 275.36328125 C-151.48851562 274.60144531 -151.9809375 273.83960938 -152.48828125 273.0546875 C-153.4248264 271.60569312 -154.36104704 270.15648893 -155.296875 268.70703125 C-155.72355469 268.04703125 -156.15023437 267.38703125 -156.58984375 266.70703125 C-156.99315918 266.07748535 -157.39647461 265.44793945 -157.81201172 264.79931641 C-158.59084065 263.61970909 -159.39930981 262.45903515 -160.23876953 261.32177734 C-163.06252423 257.45801021 -163.06252423 257.45801021 -162.73583984 255.06494141 C-161.96910535 252.91330228 -161.04326151 251.14438127 -159.84765625 249.19921875 C-159.18576294 248.11688965 -159.18576294 248.11688965 -158.51049805 247.01269531 C-158.03265869 246.24538086 -157.55481934 245.47806641 -157.0625 244.6875 C-156.56596924 243.88280273 -156.06943848 243.07810547 -155.55786133 242.24902344 C-152.1371538 236.73888135 -148.5976674 231.3205647 -144.96948242 225.94555664 C-139.45118913 217.74868742 -134.21313974 209.37144314 -128.92236328 201.02685547 C-125.56432181 195.73945413 -122.18902064 190.46311346 -118.8125 185.1875 C-118.13380859 184.12700439 -117.45511719 183.06650879 -116.75585938 181.97387695 C-112.55125054 175.40902791 -108.32531334 168.85851027 -104.08129883 162.3190918 C-100.35410904 156.56723853 -96.67486464 150.78538869 -93 145 C-88.90032735 138.54583038 -84.78754316 132.10131863 -80.625 125.6875 C-73.36131176 114.49387659 -66.1870517 103.24291228 -59 92 C-43.38293118 67.56976879 -43.38293118 67.56976879 -36.08081055 56.31835938 C-31.74735462 49.63083747 -27.47853882 42.90250946 -23.20629883 36.17578125 C-19.07396127 29.67422165 -14.91650551 23.18977433 -10.70898438 16.73657227 C-8.7210396 13.68403074 -6.75654184 10.62491995 -4.87109375 7.5078125 C-4.25363281 6.49460937 -3.63617187 5.48140625 -3 4.4375 C-2.484375 3.56996094 -1.96875 2.70242187 -1.4375 1.80859375 C-0.963125 1.21175781 -0.48875 0.61492187 0 0 Z " fill="#00D6F4" transform="translate(670,252)"/>
<path d="M0 0 C3.77802956 0.12689982 7.55491749 0.08274743 11.33448255 0.06083405 C17.8616587 0.04572371 24.38034295 0.13558634 30.90538061 0.29973137 C40.33756897 0.53685293 49.76570995 0.61107638 59.20055506 0.64738313 C74.51047873 0.71064081 89.81588651 0.90302049 105.12336195 1.17815888 C119.98055608 1.44492382 134.8365177 1.64990502 149.69562757 1.77288544 C150.61361746 1.78050442 151.53160734 1.7881234 152.47741511 1.79597326 C157.08334339 1.83382317 161.6892803 1.87046978 166.295223 1.90651846 C204.42363165 2.2064857 242.5470008 2.71665466 280.67096937 3.36590302 C279.98861049 6.28135069 279.16959 8.47424843 277.58893812 11.02605927 C277.15782728 11.7272287 276.72671644 12.42839814 276.28254163 13.15081513 C275.81259778 13.90241913 275.34265394 14.65402314 274.85846937 15.42840302 C274.36854505 16.22061249 273.87862073 17.01282197 273.37385023 17.82903779 C268.3593765 25.91759155 263.27238873 33.96099254 258.17389905 41.99676239 C255.7316526 45.84659339 253.29425731 49.69948315 250.85846937 53.55340302 C250.37128431 54.32418183 249.88409925 55.09496064 249.38215101 55.88909638 C244.64170183 63.39742288 239.94004407 70.92985724 235.23810804 78.46233857 C230.92410156 85.3701504 226.5851744 92.26161702 222.22956312 99.14324677 C218.18673822 105.53630054 214.17628957 111.94929915 210.17096937 118.36590302 C205.21414696 126.30683265 200.23592185 134.23347131 195.22956312 142.14324677 C191.18673822 148.53630054 187.17628957 154.94929915 183.17096937 161.36590302 C178.21414696 169.30683265 173.23592185 177.23347131 168.22956312 185.14324677 C164.18673804 191.53630082 160.17633148 197.94932506 156.17096937 204.36590302 C150.12278701 214.05393824 144.04649963 223.72359416 137.93415296 233.37127411 C136.75757474 235.22914888 135.58313754 237.08835834 134.40925062 238.94793427 C133.4559889 240.4542038 133.4559889 240.4542038 132.48346937 241.99090302 C131.95366468 242.82879364 131.42385999 243.66668427 130.87800062 244.52996552 C129.67096937 246.36590302 129.67096937 246.36590302 128.67096937 247.36590302 C127.05473419 247.48497825 125.43328198 247.53340034 123.81281507 247.55535614 C122.73485166 247.57210892 121.65688825 247.5888617 120.54625928 247.60612214 C119.32542142 247.61966233 118.10458356 247.63320252 116.84675062 247.64715302 C115.51343857 247.66512265 114.18013076 247.68340924 112.84682691 247.70197785 C109.04676029 247.75304104 105.24663722 247.79657294 101.44645917 247.83842576 C98.96860583 247.86606884 96.49077785 247.89541692 94.01294935 247.92519867 C6.49961034 248.96800896 -81.0394887 249.54014613 -189.32903063 249.36590302 C-188.70686084 246.23684873 -187.66154205 244.04807759 -185.90251696 241.3964206 C-185.13691203 240.23328087 -185.13691203 240.23328087 -184.35584033 239.04664338 C-183.79656344 238.20969437 -183.23728655 237.37274537 -182.66106188 236.51043427 C-182.07894442 235.62969742 -181.49682696 234.74896058 -180.89706957 233.84153473 C-178.98401303 230.95016736 -177.06284607 228.06428755 -175.14153063 225.17840302 C-173.8057786 223.16308653 -172.47049612 221.14745874 -171.13567126 219.13152802 C-167.20821838 213.20425571 -163.2704906 207.28386795 -159.32903063 201.36590302 C-158.54033587 200.18154664 -158.54033587 200.18154664 -157.73570788 198.97326386 C-153.73800206 192.97130215 -149.73653961 186.97185533 -145.7296654 180.97601044 C-137.32135137 168.38771988 -128.998803 155.74322713 -120.67522204 143.09881318 C-112.92044249 131.31932509 -105.1420152 119.55737899 -97.30168688 107.83465302 C-88.79035997 95.09126152 -80.37646696 82.28337823 -71.95403063 69.48113739 C-62.32344716 54.84737417 -62.32344716 54.84737417 -57.99114001 48.36102021 C-57.47085276 47.57933749 -56.95056551 46.79765478 -56.41451198 45.99228472 C-55.28395105 44.30748299 -54.14187296 42.63030288 -52.98403019 40.96413213 C-49.86355434 36.41925194 -47.00706491 31.86414409 -44.50231046 26.95787254 C-33.69757728 5.88087007 -24.42905131 -1.03214724 0 0 Z " fill="#009AF8" transform="translate(219.32903063297272,503.6340969800949)"/>
</svg>
